HIERARCHY
ROOT hip
{
	OFFSET 0.000000 0.000000 0.000000 
	CHANNELS 6 Xposition Yposition Zposition Xrotation Zrotation Yrotation
	JOINT abdomen
	{
		OFFSET 0.000000 3.402643 0.000000 
		CHANNELS 3 Xrotation Zrotation Yrotation
		JOINT chest
		{
			OFFSET 0.000000 8.438565 -0.680529 
			CHANNELS 3 Xrotation Zrotation Yrotation
			JOINT neck
			{
				OFFSET 0.000000 10.207942 -0.272212 
				CHANNELS 3 Xrotation Zrotation Yrotation
				JOINT head
				{
					OFFSET 0.000000 3.130431 0.000000 
					CHANNELS 3 Xrotation Zrotation Yrotation
					End Site
					{
						OFFSET 0.000000 3.130435 0.000000 
					}
				}
			}
			JOINT lCollar
			{
				OFFSET 3.470700 6.669187 -0.816635 
				CHANNELS 3 Yrotation Zrotation Xrotation
				JOINT lShldr
				{
					OFFSET 3.198488 0.000000 0.000000 
					CHANNELS 3 Zrotation Yrotation Xrotation
					JOINT lForeArm
					{
						OFFSET 10.139888 0.000000 0.000000 
						CHANNELS 3 Yrotation Zrotation Xrotation
						JOINT lHand
						{
							OFFSET 8.370511 0.000000 0.000000 
							CHANNELS 3 Zrotation Yrotation Xrotation
							End Site
							{
								OFFSET 4.083176 0.000000 0.000000 
							}
						}
					}
				}
			}
			JOINT rCollar
			{
				OFFSET -3.470700 6.669187 -0.816635 
				CHANNELS 3 Yrotation Zrotation Xrotation
				JOINT rShldr
				{
					OFFSET -3.198488 0.000000 0.000000 
					CHANNELS 3 Zrotation Yrotation Xrotation
					JOINT rForeArm
					{
						OFFSET -10.139888 0.000000 0.000000 
						CHANNELS 3 Yrotation Zrotation Xrotation
						JOINT rHand
						{
							OFFSET -8.370511 0.000000 0.000000 
							CHANNELS 3 Zrotation Yrotation Xrotation
							End Site
							{
								OFFSET -4.083176 0.000000 0.000000 
							}
						}
					}
				}
			}
		}
	}
	JOINT lThigh
	{
		OFFSET 5.308129 -1.633274 1.361059 
		CHANNELS 3 Xrotation Zrotation Yrotation
		JOINT lShin
		{
			OFFSET -2.041588 -20.007561 0.000000 
			CHANNELS 3 Xrotation Zrotation Yrotation
			JOINT lFoot
			{
				OFFSET 0.000000 -19.190928 -1.224953 
				CHANNELS 3 Xrotation Yrotation Zrotation
				End Site
				{
					OFFSET 0.000000 -2.449906 4.627600 
				}
			}
		}
	}
	JOINT rThigh
	{
		OFFSET -5.308129 -1.633274 1.361059 
		CHANNELS 3 Xrotation Zrotation Yrotation
		JOINT rShin
		{
			OFFSET 2.041588 -20.007561 0.000000 
			CHANNELS 3 Xrotation Zrotation Yrotation
			JOINT rFoot
			{
				OFFSET 0.000000 -19.190928 -1.224953 
				CHANNELS 3 Xrotation Yrotation Zrotation
				End Site
				{
					OFFSET 0.000000 -2.449906 4.627600 
				}
			}
		}
	}
}
MOTION
Frames: 18
Frame Time: 0.033333
0.269091 45.824631 2.337677 -0.016975 -0.019363 -7.519535 0.000000 0.000000 0.000000 -3.670060 -0.719586 5.283521 16.643368 2.460880 -0.390684 -9.445576 -0.439290 1.562529 1.992188 -2.001953 0.000341 -74.695885 2.490389 8.873834 -32.798317 0.793077 19.530380 12.120955 -53.490231 31.131016 -2.001953 1.992188 0.000000 72.982826 1.979683 12.312190 10.886234 -0.162911 19.193420 -21.496582 51.235935 18.759499 3.342036 2.914051 9.951487 20.597589 -1.574476 -1.991187 -22.486300 0.051395 -0.894153 -17.226418 -6.269839 -6.524053 18.307600 1.590871 1.804226 -0.548104 -0.230497 2.359769 
0.269091 45.748825 2.337677 -0.016975 -0.019363 -7.519535 0.000000 0.000000 0.000000 -1.763775 -1.198225 4.014426 16.643368 2.460880 -0.390684 -9.682842 -0.292591 2.910168 1.992188 -2.001953 0.000341 -74.314186 -0.942621 8.247694 -41.387585 1.016031 19.712799 1.803297 -54.390106 44.495007 -2.001953 1.992188 0.000000 72.638397 3.303916 13.786201 11.072436 -0.174479 19.191881 -21.496582 51.235935 18.759499 2.468623 3.103548 9.964448 21.989622 -1.526139 -2.075993 -22.964827 0.064690 -0.909745 -17.703012 -6.200444 -6.497489 18.691099 1.572153 1.821712 -0.438755 -0.266315 2.251294 
0.269091 45.662224 2.337677 -0.016975 -0.019363 -7.519535 0.000000 0.000000 0.000000 0.256426 -1.599778 2.705931 16.643368 2.460880 -0.390684 -10.000045 -0.262944 4.257858 1.992188 -2.001953 0.000341 -73.720062 -4.313289 7.551957 -50.622620 1.221760 19.944059 -9.165274 -53.769321 58.620773 -2.001953 1.992188 0.000000 72.190750 4.726322 15.189529 11.287487 -0.175042 19.199831 -21.496582 51.235935 18.759499 1.599485 3.249183 9.970947 23.301922 -1.487240 -2.157731 -23.413992 0.059625 -0.914218 -18.234470 -6.168491 -6.487841 19.142006 1.561795 1.853885 -0.398829 -0.262619 2.158379 
0.269091 45.575630 2.337677 -0.016975 -0.019363 -7.519535 0.000000 0.000000 0.000000 2.276839 -1.942782 1.397006 16.643368 2.460880 -0.390684 -10.314871 -0.223539 5.595736 1.992188 -2.001953 0.000341 -73.084351 -7.675330 6.814345 -59.858425 1.387985 20.208420 -19.238136 -51.633091 71.864616 -2.001953 1.992188 0.000000 71.787468 6.162014 16.597279 11.483443 -0.186204 19.198151 -21.496582 51.235935 18.759499 0.749880 3.390321 9.983977 24.633635 -1.438680 -2.237716 -23.863544 0.082891 -0.900570 -18.753038 -6.139725 -6.469120 19.582958 1.552180 1.885354 -0.340599 -0.284173 2.066206 
0.269091 45.499886 2.337677 -0.016975 -0.019363 -7.519535 0.000000 0.000000 0.000000 4.147380 -2.207029 0.078067 16.643368 2.460880 -0.390684 -10.504117 -0.290826 6.933653 1.992188 -2.001953 0.000341 -72.322327 -11.063213 6.068253 -67.795166 1.497577 20.446577 -27.023296 -48.662491 82.652176 -2.001953 1.992188 0.000000 71.304459 7.480888 17.958447 11.679399 -0.197371 19.196442 -21.496582 51.235935 18.759499 -0.019572 3.502583 10.009706 25.817255 -1.400043 -2.320956 -24.254585 0.108278 -0.873780 -19.269787 -6.139505 -6.457216 20.093367 1.532886 1.909140 -0.323039 -0.291827 2.021341 
0.269091 45.424145 2.337677 -0.016975 -0.019363 -7.519535 0.000000 0.000000 0.000000 6.019460 -2.431071 -1.241603 16.643368 2.460880 -0.390684 -10.696454 -0.357578 8.261862 1.992188 -2.001953 0.000341 -71.500587 -14.436748 5.250765 -75.724747 1.567083 20.706688 -33.437851 -44.860485 92.128098 -2.001953 1.992188 0.000000 70.848648 8.804428 19.308105 11.884693 -0.198371 19.204380 -21.496582 51.235935 18.759499 -0.780428 3.615933 10.024472 26.960955 -1.362934 -2.411576 -24.645742 0.141564 -0.830186 -19.801786 -6.151516 -6.444942 20.611471 1.536326 1.946672 -0.316320 -0.311961 1.950899 
0.269091 45.326691 2.337677 -0.016975 -0.019363 -7.519535 0.000000 0.000000 0.000000 7.478426 -2.604880 -2.532008 16.643368 2.460880 -0.390684 -10.554716 -0.510389 9.560861 1.992188 -2.001953 0.000341 -70.582054 -17.956360 4.487337 -80.371727 1.590717 20.857841 -37.337440 -41.789833 98.510506 -2.001953 1.992188 0.000000 70.368362 9.792083 20.695341 12.070475 -0.200210 19.192970 -21.496582 51.235935 18.759499 -1.435269 3.708963 10.032602 27.997566 -1.333905 -2.468812 -25.026718 0.144453 -0.817532 -20.277040 -6.150253 -6.412775 21.160395 1.517111 1.982073 -0.379794 -0.348820 1.916136 
0.269091 45.229240 2.337677 -0.016975 -0.019363 -7.519535 0.000000 0.000000 0.000000 8.933349 -2.738013 -3.832612 16.643368 2.460880 -0.390684 -10.410157 -0.661761 10.860108 1.992188 -2.001953 0.000341 -69.595970 -21.448862 3.637240 -85.019760 1.597636 21.008108 -40.597309 -38.440212 104.314583 -2.001953 1.992188 0.000000 69.913322 10.780044 22.080896 12.246500 -0.202472 19.201120 -21.496582 51.235935 18.759499 -2.077623 3.792558 10.048357 29.043398 -1.295050 -2.543525 -25.408039 0.153685 -0.754945 -20.765835 -6.160030 -6.409214 21.709049 1.494043 2.026645 -0.462202 -0.369129 1.898121 
0.269091 45.153427 2.337677 -0.016975 -0.019363 -7.519535 0.000000 0.000000 0.000000 9.651123 -2.955892 -5.339520 16.643368 2.460880 -0.390684 -9.401898 -0.925331 12.355034 1.992188 -2.001953 0.000341 -68.438187 -26.014956 2.655439 -82.662621 1.601595 20.937004 -41.591869 -37.654423 106.669670 -2.001953 1.992188 0.000000 69.448395 11.117078 23.931097 12.452208 -0.213247 19.199209 -21.496582 51.235935 18.759499 -2.575987 3.872462 10.058586 29.854908 -1.256272 -2.595647 -25.740118 0.150390 -0.746163 -21.186735 -6.160624 -6.386305 22.247789 1.487618 2.043985 -0.589549 -0.389590 1.827845 
0.269091 45.077621 2.337677 -0.016975 -0.019363 -7.519535 0.000000 0.000000 0.000000 10.370091 -3.160874 -6.856239 16.643368 2.460880 -0.390684 -8.402351 -1.204182 13.850695 1.992188 -2.001953 0.000341 -67.135193 -30.560581 1.516388 -80.307220 1.593068 20.859505 -42.538769 -36.826599 108.972343 -2.001953 1.992188 0.000000 69.000679 11.463553 25.772068 12.648159 -0.224445 19.207125 -21.496582 51.235935 18.759499 -3.072771 3.948918 10.067784 30.676361 -1.217298 -2.638070 -26.062494 0.146155 -0.726515 -21.604919 -6.159678 -6.392369 22.796745 1.454593 2.086216 -0.731955 -0.393141 1.805950 
0.269091 45.001881 2.337677 -0.016975 -0.019363 -7.519535 0.000000 0.000000 0.000000 10.503929 -3.449761 -8.316191 16.643368 2.460880 -0.390684 -6.936458 -1.544765 15.308358 1.992188 -2.001953 0.000341 -65.575684 -35.310760 0.422187 -73.280785 1.550442 20.623501 -42.198895 -38.108418 108.990448 -2.001953 1.992188 0.000000 68.614609 11.322774 27.771841 12.843693 -0.225892 19.215014 -21.496582 51.235935 18.759499 -3.424424 4.027555 10.042625 31.302761 -1.197885 -2.645950 -26.325825 0.148731 -0.782452 -21.931664 -6.161740 -6.378077 23.305426 1.444976 2.120743 -0.883507 -0.397309 1.752310 
0.269091 44.926144 2.337677 -0.016975 -0.019363 -7.519535 0.000000 0.000000 0.000000 10.634864 -3.743813 -9.777559 16.643368 2.460880 -0.390684 -5.472501 -1.926351 16.757673 1.992188 -2.001953 0.000341 -63.793064 -40.034599 -0.919892 -66.251396 1.475003 20.401417 -41.862190 -39.383991 108.998795 -2.001953 1.992188 0.000000 68.217873 11.204037 29.764872 13.039643 -0.237103 19.213106 -21.496582 51.235935 18.759499 -3.776313 4.106689 10.036664 31.918219 -1.168830 -2.689462 -26.589516 0.180149 -0.796012 -22.254999 -6.132508 -6.386786 23.785629 1.411799 2.158946 -1.054272 -0.425878 1.710168 
0.269091 44.882847 2.337677 -0.016975 -0.019363 -7.519535 0.000000 0.000000 0.000000 10.612576 -3.946879 -10.484313 16.643368 2.460880 -0.390684 -4.586621 -2.133462 17.453651 1.992188 -2.001953 0.000341 -62.686302 -42.501984 -1.174039 -61.730957 1.416995 20.262911 -41.541439 -40.635838 108.837143 -2.001953 1.992188 0.000000 68.017830 11.033376 30.786589 13.137616 -0.242710 19.212145 -21.496582 51.235935 18.759499 -3.969871 4.153049 10.034078 32.308769 -1.159120 -2.716681 -26.775103 0.185711 -0.792450 -22.457260 -6.141510 -6.368852 24.176975 1.405984 2.178182 -1.254969 -0.434930 1.696493 
0.269091 44.839554 2.337677 -0.016975 -0.019363 -7.519535 0.000000 0.000000 0.000000 10.597304 -4.157965 -11.192538 16.643368 2.460880 -0.390684 -3.702579 -2.357054 18.160376 1.992188 -2.001953 0.000341 -61.503326 -44.951775 -1.524522 -57.216763 1.345441 20.132444 -41.219505 -41.891094 108.671028 -2.001953 1.992188 0.000000 67.823822 10.870060 31.811834 13.235591 -0.248320 19.211172 -21.496582 51.235935 18.759499 -4.140317 4.218202 10.041626 32.669937 -1.139747 -2.749436 -26.950846 0.189967 -0.801271 -22.681423 -6.141196 -6.362489 24.567278 1.405995 2.217982 -1.428077 -0.466724 1.663287 
0.269091 44.846771 2.337677 -0.016975 -0.019363 -7.519535 0.000000 0.000000 0.000000 10.539650 -4.109343 -10.545515 16.643368 2.460880 -0.390684 -3.992894 -2.160482 17.532078 1.992188 -2.001953 0.000341 -62.225719 -43.431156 0.764570 -59.301643 1.380943 20.186794 -41.728413 -42.240555 109.594742 -2.001953 1.992188 0.000000 67.935371 10.760424 31.088306 13.205908 -0.239807 19.211464 -21.496582 51.235935 18.759499 -4.090589 4.197455 10.049233 32.729042 -1.134347 -2.741273 -27.058138 0.172874 -0.813046 -22.727135 -6.159580 -6.360307 24.851740 1.386523 2.228885 -1.634258 -0.467691 1.663211 
0.269091 44.853989 2.337677 -0.016975 -0.019363 -7.519535 0.000000 0.000000 0.000000 10.495345 -4.069457 -9.908237 16.643368 2.460880 -0.390684 -4.280694 -1.971580 16.904724 1.992188 -2.001953 0.000341 -62.836559 -41.882683 2.968457 -61.389111 1.410580 20.251347 -42.255566 -42.574440 110.531639 -2.001953 1.992188 0.000000 68.056114 10.637819 30.372393 13.156713 -0.232124 19.211948 -21.496582 51.235935 18.759499 -4.030509 4.175693 10.036814 32.788822 -1.129884 -2.713960 -27.175297 0.179272 -0.820319 -22.780272 -6.190713 -6.347762 25.135180 1.386632 2.243651 -1.858282 -0.466268 1.695621 
0.269091 44.861206 2.337677 -0.016975 -0.019363 -7.519535 0.000000 0.000000 0.000000 10.262308 -3.911707 -8.506384 16.643368 2.460880 -0.390684 -5.136570 -1.580731 15.533137 1.992188 -2.001953 0.000341 -64.021393 -38.122040 6.164282 -65.979965 1.474923 20.390963 -42.819820 -42.896889 111.320274 -2.001953 1.992188 0.000000 68.386719 10.448547 28.697271 13.029472 -0.227761 19.213203 -21.496582 51.235935 18.759499 -3.823233 4.142889 10.039171 32.621624 -1.134422 -2.735782 -27.204782 0.183938 -0.794163 -22.741766 -6.219988 -6.343360 25.321491 1.367033 2.259049 -2.102405 -0.470676 1.725791 
0.269091 44.868427 2.337677 -0.016975 -0.019363 -7.519535 0.000000 0.000000 0.000000 10.028316 -3.750278 -7.114988 16.643368 2.460880 -0.390684 -5.999197 -1.212014 14.163325 1.992188 -2.001953 0.000341 -64.884552 -34.325279 9.109549 -70.566368 1.524202 20.537401 -43.388046 -43.205914 112.116165 -2.001953 1.992188 0.000000 68.725716 10.263148 27.035582 12.902230 -0.223400 19.204678 -21.496582 51.235935 18.759499 -3.620957 4.117582 10.022661 32.455887 -1.149488 -2.711925 -27.253609 0.184063 -0.794164 -22.692005 -6.258931 -6.317903 25.506853 1.381044 2.261846 -2.336244 -0.479826 1.775112 
